# xmcd
# Copyright (C) 1995-1998 Ti Kan
#
# Track frame offsets:
#       150
#       7785
#       34629
#       68385
#       98630
#       108284
#       131328
#       170881
#       203079
#
# Disc length: 2733 seconds
#
# Revision: 0
# Processed by: cddbd v1.5.2PL0 Copyright (c) Steve Scherf et al.
# Submitted via: CD-Import v1.0
#
DISCID=630aab09
DTITLE=Oliver Roth - Humour's Humidity Prosit Prosa
DYEAR=2008
DGENRE=
TTITLE0=Ohne Kopf
TTITLE1=Dolphy Surround
TTITLE2=Knochengericht
TTITLE3=Prosit Prosa
TTITLE4=Aethiopische Polyphonie
TTITLE5=Die Leberwartung
TTITLE6=Humour's Humidity
TTITLE7=Ronin Der Technoräuber
TTITLE8=Old School Metronome
EXTD=
EXTT0=
EXTT1=
EXTT2=
EXTT3=
EXTT4=
EXTT5=
EXTT6=
EXTT7=
EXTT8=
PLAYORDER=
